<?xml version="1.0" encoding="utf-8"?>
<!-- Generator: Adobe Illustrator 21.0.0, SVG Export Plug-In . SVG Version: 6.00 Build 0)  -->
<svg version="1.1" id="Lag_1" xmlns="http://www.w3.org/2000/svg" xmlns:xlink="http://www.w3.org/1999/xlink" x="0px" y="0px"
	 viewBox="0 0 336 212.1" style="enable-background:new 0 0 336 212.1;" xml:space="preserve">
<style type="text/css">
	.st0{fill:#FFFFFF;}
	.st1{fill:#EFD773;}
	.st2{fill:#FF5757;}
	.st3{fill:#67CECA;}
	.st4{fill:#E6E6E6;}
	.st5{fill:#3B4956;}
	.st6{fill:#B3110F;}
	.st7{fill:#F5F2ED;}
</style>
<path class="st0" d="M336,169.2C336,75.7,260.8,0,168,0S0,75.7,0,169.2 M26,169.2c0-79,63.6-143,142-143s142,64,142,143"/>
<path class="st1" d="M56.6,80.5c26-33.1,66.3-54.4,111.4-54.4c45,0,85.1,21.1,111.1,54L299.6,64C268.8,25,221.3,0,168,0
	C114.5,0,66.8,25.2,36.1,64.4L56.6,80.5z"/>
<path class="st2" d="M330.5,212.1c3.6-13.7,5.5-28.1,5.5-42.9c0-39-13.1-74.9-35.2-103.6l-20.5,16.1c18.6,24.2,29.6,54.5,29.6,87.4
	c0,12.5-1.6,24.6-4.6,36.1L330.5,212.1z"/>
<path class="st3" d="M30.5,205.1c-3-11.5-4.5-23.5-4.5-35.9c0-32.8,10.9-62.9,29.3-87L34.8,66C13,94.6,0,130.3,0,169.2
	c0,14.8,1.9,29.1,5.4,42.7L30.5,205.1z"/>
<g>
	<path class="st0" d="M42,204.6c-3.2-11.5-4.8-23.4-4.8-35.5c0-72.5,58.5-131.4,130.5-131.4c72,0,130.5,59,130.5,131.4
		c0,12-1.6,24-4.8,35.5H42z"/>
	<path class="st4" d="M167.7,38.3c34.7,0,67.4,13.6,91.9,38.3c24.6,24.7,38.1,57.6,38.1,92.6c0,11.9-1.6,23.6-4.7,35H42.4
		c-3.1-11.3-4.7-23.1-4.7-35c0-35,13.5-67.8,38.1-92.6C100.3,51.9,133,38.3,167.7,38.3 M167.7,37.3c-72.3,0-131,59.1-131,131.9
		c0,12.5,1.7,24.5,4.9,36h252.1c3.2-11.4,4.9-23.5,4.9-36C298.7,96.3,240,37.3,167.7,37.3L167.7,37.3z"/>
</g>
<path class="st5" d="M164.6,48.6c-0.1,0-0.3,0-0.4,0l0.1-0.6h2.3l0.4-1.5h-3.9l-0.7,4c0.6-0.2,1.1-0.4,1.6-0.4
	c0.5,0,0.9,0.1,1.1,0.3c0.3,0.2,0.4,0.4,0.4,0.8c0,0.3-0.1,0.6-0.3,0.7c-0.2,0.2-0.4,0.3-0.8,0.3s-0.6-0.1-0.9-0.3
	c-0.3-0.2-0.5-0.4-0.7-0.7l-1.2,1.2c0.3,0.4,0.7,0.8,1.2,1c0.5,0.3,1.1,0.4,1.6,0.4c0.8,0,1.4-0.2,1.9-0.7c0.5-0.5,0.7-1.1,0.7-1.8
	c0-0.7-0.2-1.3-0.7-1.8C165.9,48.9,165.3,48.6,164.6,48.6z"/>
<path class="st5" d="M171.9,46.9c-0.4-0.3-0.9-0.5-1.5-0.5c-0.5,0-1,0.2-1.5,0.5s-0.8,0.7-1,1.3c-0.3,0.6-0.4,1.2-0.4,1.8
	c0,0.7,0.1,1.3,0.4,1.8c0.3,0.6,0.6,1,1,1.3c0.4,0.3,0.9,0.5,1.5,0.5c0.5,0,1-0.2,1.5-0.5c0.4-0.3,0.8-0.7,1-1.3
	c0.3-0.6,0.4-1.2,0.4-1.8c0-0.7-0.1-1.3-0.4-1.8S172.3,47.2,171.9,46.9z M171.3,51.4c-0.2,0.4-0.5,0.5-0.9,0.5
	c-0.4,0-0.7-0.2-0.9-0.5c-0.2-0.4-0.4-0.8-0.4-1.3s0.1-1,0.4-1.3c0.2-0.4,0.5-0.5,0.9-0.5c0.2,0,0.5,0.1,0.7,0.2
	c0.2,0.2,0.3,0.4,0.5,0.7c0.1,0.3,0.2,0.6,0.2,1C171.7,50.6,171.6,51,171.3,51.4z"/>
<path class="st5" d="M73.6,100.2c0.6-0.6,1-1.2,1.2-1.6s0.4-0.9,0.4-1.4c0-0.7-0.2-1.3-0.7-1.7c-0.5-0.4-1.1-0.7-1.8-0.7
	c-0.6,0-1.1,0.1-1.6,0.4c-0.5,0.3-0.9,0.7-1.2,1.1l1.2,1.1c0.5-0.8,1-1.1,1.6-1.1c0.4,0,0.8,0.2,0.9,0.6c0.1,0.1,0.1,0.2,0.1,0.4
	c0,0.3-0.1,0.6-0.3,0.9c-0.1,0.1-0.1,0.2-0.2,0.3c-0.1,0.1-0.2,0.3-0.5,0.5c-0.3,0.3-0.4,0.4-0.5,0.6l-2.3,2.4h5.3l0.4-1.5h-2.1
	L73.6,100.2z"/>
<path class="st5" d="M78.8,97c-0.1,0-0.3,0-0.4,0l0.1-0.6h2.3l0.4-1.5h-3.9l-0.7,4c0.6-0.2,1.1-0.4,1.6-0.4c0.5,0,0.9,0.1,1.1,0.3
	c0.3,0.2,0.4,0.4,0.4,0.8s-0.1,0.6-0.3,0.7c-0.2,0.2-0.4,0.3-0.8,0.3s-0.6-0.1-0.9-0.3s-0.5-0.4-0.7-0.7l-1.2,1.2
	c0.3,0.4,0.7,0.8,1.2,1c0.5,0.3,1.1,0.4,1.6,0.4c0.8,0,1.4-0.2,1.9-0.7c0.5-0.5,0.7-1.1,0.7-1.8c0-0.7-0.2-1.3-0.7-1.8
	C80.1,97.3,79.5,97,78.8,97z"/>
<path class="st5" d="M52.8,187.6c-0.4-0.3-0.9-0.5-1.5-0.5c-0.5,0-1,0.2-1.5,0.5c-0.4,0.3-0.8,0.7-1,1.3c-0.3,0.6-0.4,1.2-0.4,1.8
	c0,0.7,0.1,1.3,0.4,1.8c0.3,0.6,0.6,1,1,1.3c0.4,0.3,0.9,0.5,1.5,0.5c0.5,0,1-0.2,1.5-0.5c0.4-0.3,0.8-0.7,1-1.3
	c0.3-0.6,0.4-1.2,0.4-1.8c0-0.7-0.1-1.3-0.4-1.8C53.6,188.3,53.3,187.9,52.8,187.6z M52.3,192.1c-0.2,0.4-0.5,0.5-0.9,0.5
	c-0.4,0-0.7-0.2-0.9-0.5c-0.2-0.4-0.4-0.8-0.4-1.3c0-0.5,0.1-1,0.4-1.3c0.2-0.4,0.5-0.5,0.9-0.5c0.2,0,0.5,0.1,0.7,0.2
	c0.2,0.2,0.3,0.4,0.5,0.7c0.1,0.3,0.2,0.6,0.2,1C52.7,191.3,52.5,191.7,52.3,192.1z"/>
<polygon class="st5" points="270.6,188.7 272.1,188.7 272.1,194.3 273.8,194.3 273.8,187.2 271,187.2 "/>
<path class="st5" d="M279.1,187.6c-0.4-0.3-0.9-0.5-1.5-0.5s-1,0.2-1.5,0.5c-0.4,0.3-0.8,0.7-1,1.3c-0.3,0.6-0.4,1.2-0.4,1.8
	c0,0.7,0.1,1.3,0.4,1.8c0.3,0.6,0.6,1,1,1.3c0.4,0.3,0.9,0.5,1.5,0.5s1-0.2,1.5-0.5c0.4-0.3,0.8-0.7,1-1.3c0.3-0.6,0.4-1.2,0.4-1.8
	c0-0.7-0.1-1.3-0.4-1.8C279.9,188.3,279.6,187.9,279.1,187.6z M278.6,192.1c-0.2,0.4-0.5,0.5-0.9,0.5c-0.4,0-0.7-0.2-0.9-0.5
	c-0.2-0.4-0.4-0.8-0.4-1.3c0-0.5,0.1-1,0.4-1.3c0.2-0.4,0.5-0.5,0.9-0.5c0.2,0,0.5,0.1,0.7,0.2c0.2,0.2,0.3,0.4,0.5,0.7
	c0.1,0.3,0.2,0.6,0.2,1C278.9,191.3,278.8,191.7,278.6,192.1z"/>
<path class="st5" d="M286.5,188.9c-0.3-0.6-0.6-1-1-1.3c-0.4-0.3-0.9-0.5-1.5-0.5s-1,0.2-1.5,0.5c-0.4,0.3-0.8,0.7-1,1.3
	c-0.3,0.6-0.4,1.2-0.4,1.8c0,0.7,0.1,1.3,0.4,1.8c0.3,0.6,0.6,1,1,1.3c0.4,0.3,0.9,0.5,1.5,0.5s1-0.2,1.5-0.5c0.4-0.3,0.8-0.7,1-1.3
	c0.3-0.6,0.4-1.2,0.4-1.8C286.9,190.1,286.7,189.4,286.5,188.9z M284.9,192.1c-0.2,0.4-0.5,0.5-0.9,0.5c-0.4,0-0.7-0.2-0.9-0.5
	c-0.2-0.4-0.4-0.8-0.4-1.3c0-0.5,0.1-1,0.4-1.3c0.2-0.4,0.5-0.5,0.9-0.5c0.2,0,0.5,0.1,0.7,0.2c0.2,0.2,0.3,0.4,0.5,0.7
	c0.1,0.3,0.2,0.6,0.2,1C285.2,191.3,285.1,191.7,284.9,192.1z"/>
<polygon class="st5" points="253.2,96.4 256.3,96.4 253.3,102 255.1,102 258.9,94.9 253.2,94.9 "/>
<path class="st5" d="M262,97c-0.1,0-0.3,0-0.4,0l0.1-0.6h2.3l0.4-1.5h-3.9l-0.7,4c0.6-0.2,1.1-0.4,1.6-0.4c0.5,0,0.9,0.1,1.1,0.3
	c0.3,0.2,0.4,0.4,0.4,0.8s-0.1,0.6-0.3,0.7c-0.2,0.2-0.4,0.3-0.8,0.3s-0.6-0.1-0.9-0.3c-0.3-0.2-0.5-0.4-0.7-0.7l-1.2,1.2
	c0.3,0.4,0.7,0.8,1.2,1c0.5,0.3,1.1,0.4,1.6,0.4c0.8,0,1.4-0.2,1.9-0.7s0.7-1.1,0.7-1.8c0-0.7-0.2-1.3-0.7-1.8
	C263.3,97.3,262.7,97,262,97z"/>
<path class="st6" d="M166.6,1.2l-4.8,168h11.5l-4.8-168C168.5-0.4,166.7-0.4,166.6,1.2z"/>
<g>
	<path class="st7" d="M115.5,204.6c-7.2-10.7-11.1-23.1-11.1-36.1c0-35.3,28.5-64,63.6-64c35,0,63.5,28.7,63.5,64
		c0,12.9-3.8,25.4-11.1,36.1H115.5z"/>
	<path class="st4" d="M168,105.1c34.8,0,63,28.5,63,63.5c0,12.8-3.7,25-10.8,35.6H115.8c-7.1-10.5-10.8-22.8-10.8-35.6
		C105,133.6,133.2,105.1,168,105.1 M168,104.1c-35.4,0-64,28.9-64,64.5c0,13.6,4.2,26.2,11.3,36.6h105.5c7.1-10.4,11.3-23,11.3-36.6
		C232,133,203.4,104.1,168,104.1L168,104.1z"/>
</g>
</svg>
