<?xml version="1.0" encoding="utf-8"?>
<!-- Generator: Adobe Illustrator 21.0.0, SVG Export Plug-In . SVG Version: 6.00 Build 0)  -->
<svg version="1.1" id="Lag_1" xmlns="http://www.w3.org/2000/svg" xmlns:xlink="http://www.w3.org/1999/xlink" x="0px" y="0px"
	 viewBox="0 0 640 404" style="enable-background:new 0 0 640 404;" xml:space="preserve">
<style type="text/css">
	.st0{fill:#FFFFFF;}
	.st1{fill:#EFD773;}
	.st2{fill:#FF5757;}
	.st3{fill:#67CECA;}
	.st4{fill:#E6E6E6;}
	.st5{fill:#3B4956;}
</style>
<path class="st0" d="M640,322.2C640,144.3,496.7,0,320,0S0,144.3,0,322.2 M49.5,322.2C49.5,171.8,170.6,49.9,320,49.9
	s270.5,121.9,270.5,272.4"/>
<path class="st1" d="M107.7,153.4C157.3,90.3,233.9,49.9,320,49.9c85.7,0,162.1,40.2,211.7,102.8l39-30.7C512.1,47.7,421.6,0,320,0
	C218.1,0,127.3,48,68.7,122.7L107.7,153.4z"/>
<path class="st2" d="M629.6,404c6.8-26.1,10.4-53.5,10.4-81.8c0-74.3-25-142.7-67-197.3l-39,30.7c35.4,46,56.5,103.8,56.5,166.6
	c0,23.8-3,46.9-8.7,68.9L629.6,404z"/>
<path class="st3" d="M58.1,390.7c-5.6-21.9-8.6-44.8-8.6-68.5c0-62.4,20.8-119.9,55.9-165.8l-39-30.7C24.8,180.1,0,248.3,0,322.2
	c0,28.1,3.6,55.4,10.3,81.4L58.1,390.7z"/>
<g>
	<path class="st0" d="M79.6,390.2c-6.1-22-9.3-44.9-9.3-68c0-67,25.9-130,72.9-177.3c47-47.4,109.6-73.4,176.1-73.4
		c66.5,0,129.1,26.1,176.1,73.4c47,47.4,72.9,110.3,72.9,177.3c0,23.1-3.1,46-9.3,68H79.6z"/>
	<path class="st4" d="M319.4,72c33.6,0,66.1,6.6,96.7,19.7c29.6,12.6,56.2,30.6,79,53.6c22.8,23,40.7,49.7,53.3,79.6
		c13,30.9,19.5,63.6,19.5,97.4c0,22.9-3.1,45.6-9.1,67.5H80c-6.1-21.9-9.1-44.6-9.1-67.5c0-33.8,6.6-66.6,19.5-97.4
		c12.5-29.8,30.4-56.6,53.3-79.6c22.8-23,49.4-41,79-53.6C253.3,78.6,285.8,72,319.4,72 M319.4,71C181.6,71,69.9,183.5,69.9,322.2
		c0,23.7,3.3,46.7,9.4,68.5h480.3c6.1-21.8,9.4-44.8,9.4-68.5C568.9,183.5,457.2,71,319.4,71L319.4,71z"/>
</g>
<path class="st5" d="M313.6,92.6c-0.3,0-0.5,0-0.9,0.1l0.2-1.2h4.4l0.8-2.9h-7.5l-1.4,7.6c1.1-0.5,2.1-0.7,3-0.7
	c0.9,0,1.6,0.2,2.1,0.5c0.5,0.3,0.7,0.8,0.7,1.4c0,0.6-0.2,1.1-0.5,1.4c-0.3,0.3-0.8,0.5-1.4,0.5s-1.2-0.2-1.8-0.5
	c-0.6-0.4-1-0.8-1.3-1.4l-2.2,2.2c0.5,0.8,1.3,1.4,2.3,1.9s2,0.7,3.1,0.7c1.5,0,2.7-0.5,3.6-1.4c1-0.9,1.4-2.1,1.4-3.5
	c0-1.4-0.4-2.5-1.3-3.4C316.1,93.1,314.9,92.6,313.6,92.6z"/>
<path class="st5" d="M327.4,89.3c-0.8-0.6-1.8-0.9-2.8-0.9c-1,0-2,0.3-2.8,0.9c-0.8,0.6-1.5,1.4-2,2.5c-0.5,1.1-0.7,2.2-0.7,3.5
	c0,1.3,0.3,2.5,0.7,3.5c0.5,1.1,1.1,1.9,2,2.5c0.8,0.6,1.8,0.9,2.8,0.9c1,0,2-0.3,2.8-0.9c0.8-0.6,1.5-1.4,2-2.5
	c0.5-1,0.7-2.2,0.7-3.5c0-1.3-0.2-2.5-0.7-3.5C328.9,90.7,328.3,89.9,327.4,89.3z M326.3,97.9c-0.5,0.7-1,1-1.7,1
	c-0.7,0-1.3-0.3-1.7-1c-0.5-0.7-0.7-1.5-0.7-2.6s0.2-1.9,0.7-2.6c0.5-0.7,1-1,1.7-1c0.5,0,0.9,0.2,1.2,0.5c0.4,0.3,0.7,0.7,0.9,1.3
	c0.2,0.6,0.3,1.2,0.3,1.8C327,96.3,326.8,97.2,326.3,97.9z"/>
<path class="st5" d="M140.3,190.8c1.1-1.2,1.9-2.2,2.4-3.1c0.5-0.8,0.7-1.7,0.7-2.7c0-1.3-0.4-2.4-1.3-3.3c-0.9-0.8-2.1-1.3-3.5-1.3
	c-1.1,0-2.2,0.3-3.1,0.8c-1,0.5-1.7,1.3-2.3,2.2l2.3,2.1c0.9-1.4,1.9-2.2,3-2.2c0.9,0,1.4,0.4,1.7,1.1c0.1,0.2,0.1,0.5,0.1,0.7
	c0,0.6-0.2,1.1-0.5,1.7c-0.1,0.2-0.3,0.4-0.4,0.6c-0.1,0.2-0.4,0.5-0.9,1c-0.5,0.5-0.8,0.8-1,1.1l-4.4,4.6H143l0.8-2.9h-4
	L140.3,190.8z"/>
<path class="st5" d="M150,184.8c-0.3,0-0.5,0-0.9,0.1l0.2-1.2h4.4l0.8-2.9h-7.5l-1.4,7.6c1.1-0.5,2.1-0.7,3-0.7
	c0.9,0,1.6,0.2,2.1,0.5c0.5,0.3,0.7,0.8,0.7,1.4c0,0.6-0.2,1.1-0.5,1.4c-0.3,0.3-0.8,0.5-1.4,0.5c-0.6,0-1.2-0.2-1.8-0.5
	c-0.6-0.4-1-0.8-1.3-1.4l-2.2,2.2c0.5,0.8,1.3,1.4,2.3,1.9c1,0.5,2,0.7,3.1,0.7c1.5,0,2.7-0.5,3.6-1.4c1-0.9,1.4-2.1,1.4-3.5
	c0-1.4-0.4-2.5-1.3-3.4C152.6,185.3,151.4,184.8,150,184.8z"/>
<path class="st5" d="M100.7,357.3c-0.8-0.6-1.8-0.9-2.8-0.9c-1,0-2,0.3-2.8,0.9c-0.8,0.6-1.5,1.4-2,2.5c-0.5,1-0.7,2.2-0.7,3.5
	c0,1.3,0.2,2.5,0.7,3.5c0.5,1,1.1,1.9,2,2.5c0.8,0.6,1.8,0.9,2.8,0.9c1,0,2-0.3,2.8-0.9c0.8-0.6,1.5-1.4,2-2.5
	c0.5-1.1,0.7-2.2,0.7-3.5c0-1.3-0.2-2.5-0.7-3.5C102.2,358.7,101.5,357.9,100.7,357.3z M99.6,365.9c-0.5,0.7-1,1-1.7,1
	c-0.7,0-1.3-0.3-1.7-1c-0.5-0.7-0.7-1.5-0.7-2.6c0-1,0.2-1.9,0.7-2.6c0.5-0.7,1-1,1.7-1c0.5,0,0.9,0.2,1.2,0.5
	c0.4,0.3,0.7,0.7,0.9,1.3c0.2,0.6,0.3,1.2,0.3,1.8C100.3,364.3,100.1,365.2,99.6,365.9z"/>
<polygon class="st5" points="515.4,359.5 518.2,359.5 518.2,370 521.6,370 521.6,356.5 516.2,356.5 "/>
<path class="st5" d="M531.7,357.3c-0.8-0.6-1.8-0.9-2.8-0.9s-2,0.3-2.8,0.9c-0.8,0.6-1.5,1.4-2,2.5c-0.5,1-0.7,2.2-0.7,3.5
	c0,1.3,0.2,2.5,0.7,3.5c0.5,1,1.1,1.9,2,2.5c0.8,0.6,1.8,0.9,2.8,0.9s2-0.3,2.8-0.9c0.8-0.6,1.5-1.4,2-2.5c0.5-1.1,0.7-2.2,0.7-3.5
	c0-1.3-0.2-2.5-0.7-3.5C533.2,358.7,532.5,357.9,531.7,357.3z M530.6,365.9c-0.5,0.7-1,1-1.7,1c-0.7,0-1.3-0.3-1.7-1
	c-0.5-0.7-0.7-1.5-0.7-2.6c0-1,0.2-1.9,0.7-2.6c0.5-0.7,1-1,1.7-1c0.5,0,0.9,0.2,1.2,0.5c0.4,0.3,0.7,0.7,0.9,1.3
	c0.2,0.6,0.3,1.2,0.3,1.8C531.3,364.3,531.1,365.2,530.6,365.9z"/>
<path class="st5" d="M545.7,359.8c-0.5-1.1-1.1-1.9-2-2.5c-0.8-0.6-1.8-0.9-2.8-0.9c-1,0-2,0.3-2.8,0.9c-0.8,0.6-1.5,1.4-2,2.5
	c-0.5,1-0.7,2.2-0.7,3.5c0,1.3,0.2,2.5,0.7,3.5c0.5,1,1.1,1.9,2,2.5c0.8,0.6,1.8,0.9,2.8,0.9c1,0,2-0.3,2.8-0.9
	c0.8-0.6,1.5-1.4,2-2.5c0.5-1.1,0.7-2.2,0.7-3.5C546.4,362,546.1,360.8,545.7,359.8z M542.6,365.9c-0.5,0.7-1,1-1.7,1
	c-0.7,0-1.3-0.3-1.7-1c-0.5-0.7-0.7-1.5-0.7-2.6c0-1,0.2-1.9,0.7-2.6c0.5-0.7,1-1,1.7-1c0.5,0,0.9,0.2,1.2,0.5
	c0.4,0.3,0.7,0.7,0.9,1.3c0.2,0.6,0.3,1.2,0.3,1.8C543.3,364.3,543.1,365.2,542.6,365.9z"/>
<polygon class="st5" points="482.3,183.7 488.1,183.7 482.4,194.2 486,194.2 493.1,180.7 482.3,180.7 "/>
<path class="st5" d="M499,184.8c-0.3,0-0.5,0-0.9,0.1l0.2-1.2h4.4l0.8-2.9h-7.5l-1.4,7.6c1.1-0.5,2.1-0.7,3-0.7
	c0.9,0,1.6,0.2,2.1,0.5c0.5,0.3,0.7,0.8,0.7,1.4c0,0.6-0.2,1.1-0.5,1.4c-0.3,0.3-0.8,0.5-1.5,0.5s-1.2-0.2-1.8-0.5
	c-0.6-0.4-1-0.8-1.3-1.4l-2.2,2.2c0.5,0.8,1.3,1.4,2.3,1.9c1,0.5,2,0.7,3.1,0.7c1.5,0,2.7-0.5,3.6-1.4c1-0.9,1.4-2.1,1.4-3.5
	c0-1.4-0.4-2.5-1.3-3.4C501.5,185.3,500.4,184.8,499,184.8z"/>
</svg>
